<svg xmlns="http://www.w3.org/2000/svg" xmlns:xlink="http://www.w3.org/1999/xlink" viewBox="0 0 800 618"><defs><style>.a{fill:url(#a);}.b{fill:#ebf5ff;}.c{fill:#c1ddf7;}.d{fill:#71addb;}.e{fill:#214a81;}.f{fill:#d7e8f7;}.g{fill:#fff;}.h{fill:#00c0cd;}.i{fill:#009db0;}.j{fill:#cadfef;}.k{fill:#84b4fe;}.l{fill:#538dd3;}.m{fill:#ffbda1;}.n{fill:#ffd474;}.o{fill:#241c2b;}.p{fill:#03345f;}.q{fill:#072042;}.r{fill:#ffb398;}.s{fill:#0e0e0e;}.t{fill:#052e47;}.u{fill:#faaaab;}.v{fill:#f7c869;}.w{clip-path:url(#b);}.x{fill:#8cb8f2;}.y{clip-path:url(#c);}</style><linearGradient id="a" x1="0.022" y1="0.054" x2="0.618" y2="1.058" gradientUnits="objectBoundingBox"><stop offset="0" stop-color="#bffcfb"/><stop offset="1" stop-color="#fff"/></linearGradient><clipPath id="b"><path d="M93.234,31.329a6.932,6.932,0,1,0,.842-9.766A7.105,7.105,0,0,0,93.234,31.329Z" transform="translate(-91.673 -19.931)"/></clipPath><clipPath id="c"><path d="M20.852,161.727a6.925,6.925,0,0,1-8.083,5.725,7,7,0,1,1,2.357-13.808A7.048,7.048,0,0,1,20.852,161.727Z" transform="translate(-6.935 -153.535)"/></clipPath></defs><g transform="translate(-23 -75)"><rect class="a" width="800" height="618" transform="translate(23 75)"/><path class="b" d="M344.48,0S201.58,33.942,210,192.409c8.417,158.247-36.921,188.662-103.11,223.926C42.994,450.276-10,498.984,1.674,618h611.58V0Z" transform="translate(209.621 75)"/><g transform="translate(263.286 180.004)"><path class="c" d="M279.322,178.821H37.854A18.4,18.4,0,0,1,19.5,160.467V150.7H297.845v9.767A18.653,18.653,0,0,1,279.322,178.821Z" transform="translate(13.336 103.06)"/><rect class="d" width="57.083" height="24.585" transform="translate(143.803 281.881)"/><path class="e" d="M297.745,217.063H19.4V71.407A16.96,16.96,0,0,1,36.407,54.4H280.738a16.96,16.96,0,0,1,17.007,17.007V217.063Z" transform="translate(13.267 37.203)"/><rect class="f" width="257.465" height="140.941" transform="translate(43.949 103.222)"/><path class="g" d="M110.861,160.83a6.23,6.23,0,1,1-6.23-6.23A6.216,6.216,0,0,1,110.861,160.83Z" transform="translate(67.294 105.728)"/><path class="g" d="M215.976,182.9H99.62a5.246,5.246,0,0,1-5.22-5.22V74.12a5.246,5.246,0,0,1,5.22-5.22H215.976a5.246,5.246,0,0,1,5.22,5.22V177.679A5.246,5.246,0,0,1,215.976,182.9Z" transform="translate(64.558 47.119)"/><path class="g" d="M116.016,161.562H41.42a5.246,5.246,0,0,1-5.22-5.22V105.32a5.246,5.246,0,0,1,5.22-5.22h74.6a5.246,5.246,0,0,1,5.22,5.22v51.022A5.246,5.246,0,0,1,116.016,161.562Z" transform="translate(24.756 68.456)"/><g transform="translate(338.04 141.783)"><path class="h" d="M205.043,141.115h0a8.679,8.679,0,0,0,1.347-10.608h0a1.3,1.3,0,0,1-.168-.505h0a17.608,17.608,0,0,1,3.368-20.375c2.863-3.873.674-8.925.674-8.925h0a11.32,11.32,0,0,1-.674-4.041,12.461,12.461,0,1,1,24.921,0,14.473,14.473,0,0,1-.674,4.041h0s-2.189,5.22.674,8.925A17.608,17.608,0,0,1,237.879,130h0v.168c-.168.168-.168.337-.337.505a8.652,8.652,0,0,0,1.179,9.935l.337.337.168.168h0a21.155,21.155,0,0,1,4.715,13.471,21.554,21.554,0,0,1-43.107,0A19.035,19.035,0,0,1,205.043,141.115Z" transform="translate(-200.751 -84.2)"/><path class="i" d="M210.318,141.86l5.22,5.22V128.726l-6.567-6.4a.833.833,0,0,1,1.179-1.179l5.22,5.22V100.942a.842.842,0,1,1,1.684,0v15.323l5.22-5.052a.833.833,0,1,1,1.179,1.179l-6.4,6.4v18.523l5.725-5.725a.833.833,0,0,1,1.179,1.179l-6.9,6.9v49a.842.842,0,0,1-1.684,0V149.606l-6.567-6.4a.814.814,0,0,1,0-1.179C209.476,141.523,209.981,141.523,210.318,141.86Z" transform="translate(-195.417 -73.326)"/><path class="j" d="M237.3,154.421H209.01a1.01,1.01,0,0,1,0-2.021H237.3a1.01,1.01,0,0,1,0,2.021Z" transform="translate(-195.793 -37.56)"/></g><g transform="translate(68.534 175.628)"><g transform="translate(2.189 32.836)"><path class="f" d="M105.751,127.336H43.784a1.687,1.687,0,0,1-1.684-1.684v-.168a1.687,1.687,0,0,1,1.684-1.684h61.967a1.687,1.687,0,0,1,1.684,1.684v.168A1.811,1.811,0,0,1,105.751,127.336Z" transform="translate(-41.932 -123.8)"/><path class="f" d="M79.045,132.436H43.684A1.687,1.687,0,0,1,42,130.752v-.168a1.687,1.687,0,0,1,1.684-1.684H79.045a1.687,1.687,0,0,1,1.684,1.684v.168C80.9,131.763,80.056,132.436,79.045,132.436Z" transform="translate(-42 -120.312)"/></g><circle class="f" cx="11.619" cy="11.619" r="11.619"/></g><path class="j" d="M347.047,188.784H.842a.842.842,0,0,1,0-1.684H347.047a.8.8,0,0,1,.842.842A.9.9,0,0,1,347.047,188.784Z" transform="translate(0 127.954)"/><path class="k" d="M168.82,147.2H141.877a7.546,7.546,0,0,1-7.577-7.577V112.677a7.546,7.546,0,0,1,7.577-7.577H168.82a7.546,7.546,0,0,1,7.577,7.577v26.942A7.546,7.546,0,0,1,168.82,147.2Z" transform="translate(91.845 71.876)"/><g transform="translate(195.161 329.03)"><path class="l" d="M154.966,219.075H121.288a5.426,5.426,0,0,1-5.388-5.388v-9.6a5.426,5.426,0,0,1,5.388-5.388h33.678a5.426,5.426,0,0,1,5.388,5.388v9.6A5.426,5.426,0,0,1,154.966,219.075Z" transform="translate(-115.9 -193.143)"/><path class="k" d="M154.966,215.775H121.288a5.426,5.426,0,0,1-5.388-5.388v-9.6a5.426,5.426,0,0,1,5.388-5.388h33.678a5.426,5.426,0,0,1,5.388,5.388v9.6A5.319,5.319,0,0,1,154.966,215.775Z" transform="translate(-115.9 -195.4)"/></g><g transform="translate(248.024 209.127)"><path class="m" d="M151.009,124.2a4.035,4.035,0,0,1,3.873,3.873,3.776,3.776,0,0,1-3.7,3.873,4.035,4.035,0,0,1-3.873-3.873A3.5,3.5,0,0,1,151.009,124.2Z" transform="translate(-147.293 -124.194)"/><g transform="translate(22.407 14.66)"><g transform="translate(19.671 12.461)"><path class="m" d="M194.661,141.31a3.254,3.254,0,0,0-4.715,0,3.667,3.667,0,0,0-.168,5.052,3.254,3.254,0,0,0,4.715,0A3.846,3.846,0,0,0,194.661,141.31Z" transform="translate(-160.953 -140.3)"/><g transform="translate(0 3.536)"><path class="n" d="M189.151,154.861l-12.292-10.608a2.868,2.868,0,0,0-4.21,1.347A3.949,3.949,0,0,0,174,150.483l12.292,10.608a5.72,5.72,0,0,0,7.577-1.01l10.272-12.8-4.883-4.883Z" transform="translate(-172.282 -142.4)"/></g></g><path class="m" d="M165.468,202.856l5.052-.168-.168-8.588-5.052.168Z" transform="translate(-157.386 -91.047)"/><path class="o" d="M160.6,204.194l13.134-.168V198.3H165.82c-2.863,0-5.22,2.694-5.22,5.894Z" transform="translate(-160.6 -88.174)"/><path class="m" d="M180.894,202.856l-4.883-.168L175,194.1l4.883.168Z" transform="translate(-150.752 -91.047)"/><path class="o" d="M188.634,204.194l-12.629-.168L175.5,198.3h8.083c2.694,0,5.052,2.694,5.052,5.894Z" transform="translate(-150.41 -88.174)"/><g transform="translate(4.21 43.612)"><g transform="translate(3.536)"><path class="p" d="M165.2,159.474l8.588-.337,1.01-.168,8.588-.168v12.461l-17.512.674Z" transform="translate(-165.2 -158.8)"/></g><path class="p" d="M176.994,222.282h7.746l-4.041-32.33L179.351,158.8l-8.251,1.347,1.179,30.141a2.136,2.136,0,0,0,.168,1.01Z" transform="translate(-157.629 -158.8)"/><path class="p" d="M165.289,221.74H172.7l-1.179-30.815,4.21-30.815-9.093-1.01L163.1,190.42v1.01Z" transform="translate(-163.1 -158.595)"/></g><g transform="translate(6.904)"><rect class="m" width="5.052" height="6.736" transform="translate(7.409 12.292)"/><g transform="translate(1.684)"><path class="m" d="M169.068,138.484a1.684,1.684,0,1,1-1.684-1.684A1.811,1.811,0,0,1,169.068,138.484Z" transform="translate(-165.7 -130.233)"/><path class="m" d="M177.068,138.484a1.684,1.684,0,1,1-1.684-1.684A1.687,1.687,0,0,1,177.068,138.484Z" transform="translate(-160.229 -130.233)"/><path class="q" d="M180.408,139.8a6.9,6.9,0,1,1-6.9-6.9A6.829,6.829,0,0,1,180.408,139.8Z" transform="translate(-165.085 -132.9)"/></g><path class="n" d="M183.728,171.121H165.374l-.674-21.554c0-3.536,2.189-6.567,5.557-6.567h8.419c3.368,0,5.557,2.863,5.557,6.567Z" transform="translate(-164.7 -125.993)"/></g></g><path class="n" d="M176.379,162.061l-13.639-14.145-.168-.168L149.1,131.415l5.725-4.715,13.3,16.165,13.639,14.145Z" transform="translate(-146.057 -122.48)"/></g><g transform="translate(80.736 33.562)"><g transform="translate(113.752 69.66)"><path class="m" d="M121.089,70.056l4.715-.168L123.783,61.3l-4.883.168Z" transform="translate(-113.175 -61.3)"/><path class="o" d="M115.5,71.125l12.8-.168V65.4h-7.746a5.565,5.565,0,0,0-5.052,5.725Z" transform="translate(-115.5 -58.496)"/></g><g transform="translate(91.524 45.412)"><path class="r" d="M107.963,54.477l4.715-.168L109.983,46.9l-4.883.337Z" transform="translate(-100.385 -46.9)"/><path class="s" d="M102.3,56.725l12.8-.168V51h-7.746a5.565,5.565,0,0,0-5.052,5.725Z" transform="translate(-102.3 -44.096)"/></g><path class="t" d="M137.732,39.939l-32.162,10.1,2.694-6.567,9.261,21.385-8.251.505-10.1-18.017a4.743,4.743,0,0,1,2.189-6.23l.505-.168,30.31-14.65Z" transform="translate(-13.203 -15.576)"/><g transform="translate(58.096 7.02)"><path class="u" d="M88.261,43.91a3.254,3.254,0,0,0-4.715,0,3.46,3.46,0,0,0-.168,4.883,3.254,3.254,0,0,0,4.715,0A3.61,3.61,0,0,0,88.261,43.91Z" transform="translate(-82.448 -11.243)"/><path class="v" d="M88.841,60.809,84.8,54.747l17.176-11.619L113.426,24.1l6.23,3.7-11.787,19.7a7.323,7.323,0,0,1-1.01,1.179Z" transform="translate(-80.839 -24.1)"/></g><g transform="translate(72.833)"><path class="m" d="M100.089,24.1h4.041l1.179,5.22L97.9,28.141Z" transform="translate(-86.618 -17.08)"/><path class="m" d="M91.368,25.747,92.547,24.4l1.684,1.515-1.179,1.01-1.179-.168A.6.6,0,0,1,91.368,25.747Z" transform="translate(-91.2 -16.875)"/><g transform="translate(0.796)"><path class="m" d="M93.234,31.329a6.932,6.932,0,1,0,.842-9.766A7.105,7.105,0,0,0,93.234,31.329Z" transform="translate(-91.673 -19.931)"/><g class="w"><path class="q" d="M92.3,20.274l14.481,11.282L104.424,19.6Z" transform="translate(-91.244 -20.158)"/></g></g><path class="m" d="M96.674,25.319a1.909,1.909,0,1,0,2.863-2.526,1.753,1.753,0,0,0-2.694-.168A2.028,2.028,0,0,0,96.674,25.319Z" transform="translate(-87.75 -18.468)"/></g><path class="n" d="M125.216,23.794l.168,14.481-20.712,3.2-3.873-16.5,1.684-.674a17.239,17.239,0,0,1,10.1-1.179l3.2.337Z" transform="translate(-11.801 -17.953)"/><path class="p" d="M115.368,37.883l14.481,1.01V37.546A14.237,14.237,0,0,0,115.2,23.4h0Z" transform="translate(-1.953 -17.561)"/><path class="p" d="M131.816,34.31l-10.1,21.217.168-2.694,7.409,33.846-7.746.168L112.451,55.19a4.1,4.1,0,0,1,0-2.021l.168-.842L117.5,30.1Z" transform="translate(-3.92 -12.977)"/><g transform="translate(0 26.968)"><path class="g" d="M150.585,75.439,51.573,56.58a4.439,4.439,0,0,1-3.536-5.22l2.189-11.787a4.439,4.439,0,0,1,5.22-3.536l99.18,19.028a4.439,4.439,0,0,1,3.536,5.22l-2.189,11.787A4.587,4.587,0,0,1,150.585,75.439Z" transform="translate(-47.947 -35.947)"/><path class="x" d="M113.576,61.129l-2.357-3.873a5.962,5.962,0,0,0,1.515-2.694,4.888,4.888,0,1,0-5.725,3.873,6.268,6.268,0,0,0,3.031-.337l2.357,3.7Zm-2.526-6.736a3.336,3.336,0,1,1-2.694-3.873A3.371,3.371,0,0,1,111.051,54.393Z" transform="translate(-10.265 -27.193)"/></g><g transform="translate(78.639 11.903)"><path class="m" d="M100.461,52.81a3.254,3.254,0,0,0-4.715,0,3.46,3.46,0,0,0-.168,4.883,3.254,3.254,0,0,0,4.715,0A3.626,3.626,0,0,0,100.461,52.81Z" transform="translate(-94.648 -10.04)"/><path class="n" d="M101.862,71.623,95.8,67.581l13.3-19.2-3.536-20.207L112.807,27l3.7,21.554a3.743,3.743,0,0,1-.505,2.694Z" transform="translate(-93.86 -27)"/></g></g><path class="c" d="M177.395,190.251H70.3A8.264,8.264,0,0,1,78.551,182h90.593a8.264,8.264,0,0,1,8.251,8.251Z" transform="translate(48.077 124.466)"/><g transform="translate(1.021 258.535)"><g transform="translate(47.306 83.629)"><path class="m" d="M29.71,214.482c0-.337-1.01-10.272-1.01-10.272l5.22-1.01,1.01,10.272Z" transform="translate(-28.7 -203.2)"/><path class="s" d="M44.255,210.975l-14.313,2.863L29.1,209.46l9.935-2.021a4.4,4.4,0,0,1,5.22,3.536Z" transform="translate(-28.426 -200.367)"/></g><path class="t" d="M21.251,176.8l20.207,15.492.674.505a5.2,5.2,0,0,1,1.852,3.368l2.526,28.458-7.241,1.01L34.554,196.5l2.526,3.873L13,190.271Z" transform="translate(7.87 -137.625)"/><path class="v" d="M13.89,195.909l17.344-6.23a2.806,2.806,0,0,0,1.852-3.368L25.677,162.4,11.7,166.778a9.412,9.412,0,0,0-6.23,11.787Z" transform="translate(2.433 -147.473)"/><path class="k" d="M54.056,194.777l-24.079,6.062a6.86,6.86,0,0,1-8.419-5.052L15.5,171.877a6.86,6.86,0,0,1,5.052-8.419L44.458,157.4a6.86,6.86,0,0,1,8.419,5.052l6.062,23.911A6.708,6.708,0,0,1,54.056,194.777Z" transform="translate(9.416 -151.056)"/><g transform="translate(16.155 93.059)"><path class="m" d="M10.2,218.9c.168-.337,1.515-10.1,1.515-10.1l5.22.337-1.515,10.1Z" transform="translate(-10.2 -208.8)"/><path class="o" d="M24.85,218.246H10.2V213.7H20.3a4.756,4.756,0,0,1,4.546,4.546Z" transform="translate(-10.2 -205.449)"/></g><path class="p" d="M22.256,179.1l2.526,20.375.168,1.01a4.578,4.578,0,0,1,0,1.515l-6.567,31.489-7.746-.505,4.378-31.994.168,2.526L10.3,183.646Z" transform="translate(6.023 -136.052)"/><g transform="translate(37.877 28.449)"><path class="m" d="M33.183,174.757a3.471,3.471,0,1,1-2.526-4.21A3.608,3.608,0,0,1,33.183,174.757Z" transform="translate(-20.891 -170.43)"/><path class="m" d="M30,171.5l-6.9,3.7,2.021,3.2,8.083-3.7Z" transform="translate(-23.1 -169.699)"/></g><path class="m" d="M16.626,156.605l-1.684-.505-.842,2.189,1.515.337,1.01-.674C17.3,157.447,17.131,156.774,16.626,156.605Z" transform="translate(8.622 -151.782)"/><g transform="translate(10.658)"><path class="m" d="M20.852,161.727a6.925,6.925,0,0,1-8.083,5.725,7,7,0,1,1,2.357-13.808A7.048,7.048,0,0,1,20.852,161.727Z" transform="translate(-6.935 -153.535)"/><g class="y"><path class="q" d="M16.545,152.4l-6.9,17.176L5.6,157.957Z" transform="translate(-7.849 -154.312)"/></g></g><path class="m" d="M11.982,158.9a2.027,2.027,0,0,1-2.189,1.684,1.953,1.953,0,1,1,.505-3.873A1.757,1.757,0,0,1,11.982,158.9Z" transform="translate(4.51 -151.38)"/><path class="q" d="M12.383,164.184a6.191,6.191,0,0,1-8.083,3.2A6.147,6.147,0,1,1,9.184,156.1,6.309,6.309,0,0,1,12.383,164.184Z" transform="translate(-0.606 -152.119)"/><path class="m" d="M15.225,161.2c0,.337.674,9.6.674,9.6l-6.4-3.536.168-5.894Z" transform="translate(5.476 -148.294)"/><path class="n" d="M22.039,192.564a3.931,3.931,0,0,1-3.368-1.684L6.379,173.368a3.837,3.837,0,0,1,1.01-5.388h0a3.837,3.837,0,0,1,5.388,1.01l10.272,14.65,14.987-8.588,3.873,6.736L23.723,192.059A3.249,3.249,0,0,1,22.039,192.564Z" transform="translate(2.872 -144.128)"/></g><g transform="translate(61.798 133.026)"><path class="g" d="M103.213,82.7H38.384A1.687,1.687,0,0,1,36.7,81.021v-.337A1.687,1.687,0,0,1,38.384,79h64.829a1.687,1.687,0,0,1,1.684,1.684v.168A1.637,1.637,0,0,1,103.213,82.7Z" transform="translate(-36.7 -79)"/><path class="g" d="M103.213,96.336H38.384A1.687,1.687,0,0,1,36.7,94.652v-.168A1.687,1.687,0,0,1,38.384,92.8h64.829a1.687,1.687,0,0,1,1.684,1.684v.168A1.586,1.586,0,0,1,103.213,96.336Z" transform="translate(-36.7 -69.562)"/><path class="g" d="M118.7,89.436H38.384A1.687,1.687,0,0,1,36.7,87.752v-.168A1.687,1.687,0,0,1,38.384,85.9h80.153a1.687,1.687,0,0,1,1.684,1.684v.168A1.548,1.548,0,0,1,118.7,89.436Z" transform="translate(-36.7 -74.281)"/></g><g transform="translate(202.739)"><path class="g" d="M163.507,12.966H120.4S123.6,0,134.713,0a16.561,16.561,0,0,1,14.313,7.914c3.2-1.179,10.272-2.863,14.481,5.052" transform="translate(-120.4)"/><g transform="translate(94.466 43.949)"><path class="g" d="M188.119,36.372a11.817,11.817,0,0,1,5.894,1.515,19.044,19.044,0,0,1,16.334-9.6,18.781,18.781,0,0,1,15.66,8.419A14.523,14.523,0,0,1,254.464,39.4a6.907,6.907,0,0,1,1.852-.168A12.092,12.092,0,0,1,266.924,45.8H176.5A12.2,12.2,0,0,1,188.119,36.372Z" transform="translate(-176.5 -26.1)"/></g></g></g></g></svg>