<svg xmlns="http://www.w3.org/2000/svg" xmlns:xlink="http://www.w3.org/1999/xlink" viewBox="0 0 800 618.994"><defs><style>.a{fill:#4b4453;}.b{fill:#191949;}.c{fill:#454587;}.d{fill:#8787c6;}.e{fill:#313166;}.f{fill:none;}.f,.i{stroke:#d37199;stroke-miterlimit:10;}.g{fill:#ffe9f2;}.h{fill:#7d7db5;}.i,.m{fill:#f9afd4;}.j{fill:#d37199;}.k{fill:url(#a);}.l{fill:#bc4b7f;}.n{fill:#f9b175;}.o{fill:#f7d0e9;}</style><linearGradient id="a" x1="-0.052" y1="0.957" x2="0.652" y2="0.374" gradientUnits="objectBoundingBox"><stop offset="0.141" stop-color="#fe6697"/><stop offset="0.368" stop-color="#fe72a0"/><stop offset="0.782" stop-color="#fe93b6"/><stop offset="0.845" stop-color="#fe99ba"/></linearGradient></defs><g transform="translate(-23 -38.503)"><rect class="a" width="800" height="618" transform="translate(23 39)"/><g transform="translate(23.228 38.503)"><g transform="translate(404.079 218.01)"><path class="b" d="M423.706,257.56l-97.306-56.2L370.1,176.1l97.306,56.2Z" transform="translate(-326.4 -176.1)"/><path class="c" d="M379.209,201.775c.743-.5,1.486-.867,2.352-1.362,1.857-1.114,2.724-2.352,2.6-3.962a4.318,4.318,0,0,0-1.609-2.476c-.124-.124-.371-.248-.5-.371s-.371-.248-.5-.371a.945.945,0,0,0-.619-.248,14.515,14.515,0,0,0-8.914-.5,9.289,9.289,0,0,0-2.228.99c-.743.5-1.486.867-2.228,1.362a7.115,7.115,0,0,0-5.942,0l-9.78,5.571c-1.733.99-1.733,2.6,0,3.59l11.513,6.561a6.563,6.563,0,0,0,6.066,0l9.78-5.571C380.7,204.251,380.7,202.765,379.209,201.775Zm-1.857-6.438c1.238.371,1.981,1.238,1.733,1.981a1.656,1.656,0,0,1-.867.99l-2.6,1.486-4.7-2.724c.867-.5,1.609-.99,2.476-1.486A6.181,6.181,0,0,1,377.352,195.337Zm-11.761,9.037-3.343,1.857a2.887,2.887,0,0,1-2.476,0,.731.731,0,0,1,0-1.362l3.343-1.857c-.5-.743-.248-1.733.867-2.352a6.032,6.032,0,0,1,5.447,0,1.719,1.719,0,0,1,0,3.219A7.452,7.452,0,0,1,365.592,204.375Z" transform="translate(-320.653 -172.311)"/><path class="d" d="M423.706,256.79V252.7L326.4,196.5v4.085Z" transform="translate(-326.4 -171.245)"/><path class="c" d="M448.7,225.585V221.5L405,246.755v4.085Z" transform="translate(-307.694 -165.295)"/></g><g transform="translate(460.036 186.07)"><path class="b" d="M469.03,231.636l-97.43-56.2L415.3,150.3l97.306,56.081Z" transform="translate(-371.6 -150.3)"/><path class="c" d="M435.875,179.389c1.857-1.114,2.724-2.352,2.6-3.962a3.727,3.727,0,0,0-1.609-2.352c-.124-.124-.371-.248-.5-.371s-.371-.248-.5-.371a.945.945,0,0,0-.619-.248,14.179,14.179,0,0,0-8.79-.5,12.151,12.151,0,0,0-2.228.99c-.743.5-1.486.867-2.228,1.362l-9.037-5.2a6.563,6.563,0,0,0-6.066,0l-9.656,5.571c-1.733.99-1.733,2.6,0,3.466l11.389,6.561a6.563,6.563,0,0,0,6.066,0l9.656-5.571c1.238-.743,1.609-1.857.867-2.724.867-.5,1.733-.99,2.724-1.609a5.154,5.154,0,0,1,3.838-.371c1.238.371,1.981,1.238,1.733,1.981a1.656,1.656,0,0,1-.867.99c-1.238.619-2.352,1.362-3.59,1.981h0l3.466,2.1h0A29.018,29.018,0,0,0,435.875,179.389ZM410.868,177.9l-3.219,1.857a2.887,2.887,0,0,1-2.476,0,.731.731,0,0,1,0-1.362l3.219-1.857c-.5-.743-.248-1.733.867-2.352a6.032,6.032,0,0,1,5.447,0,1.719,1.719,0,0,1,0,3.219A5.764,5.764,0,0,1,410.868,177.9Z" transform="translate(-365.805 -146.088)"/><path class="d" d="M469.03,230.89V226.8L371.6,170.6v4.085Z" transform="translate(-371.6 -145.469)"/><path class="c" d="M493.877,199.685V195.6L450.3,220.855v4.085Z" transform="translate(-352.87 -139.519)"/></g><g transform="translate(229.152 117.702)"><path class="b" d="M187.8,98.82,443.2,501.661l5.447-3.095a3.762,3.762,0,0,0,.867-.619c1.486-1.362,2.476-3.838,2.476-7.057V254.683c0-7.057-4.333-15.227-9.533-18.2L199.437,96.22c-2.352-1.362-4.581-1.486-6.19-.5Z" transform="translate(-184.457 -95.075)"/><path class="e" d="M444.706,500.423a2.221,2.221,0,0,1-.867.619c-1.609.99-3.838.867-6.19-.5L194.633,360.283c-5.323-3.095-9.533-11.266-9.533-18.2V106c0-3.343.99-5.695,2.476-7.057a2.22,2.22,0,0,1,.867-.619c1.609-.99,3.838-.867,6.19.5L437.526,238.96c5.323,3.095,9.533,11.266,9.533,18.2V493.243C447.058,496.586,446.192,499.062,444.706,500.423Z" transform="translate(-185.1 -94.456)"/><path class="f" d="M443.84,498.966c-1.609.99-3.838.867-6.19-.5L194.633,358.207c-5.323-3.095-9.533-11.266-9.533-18.2V106.4" transform="translate(-185.1 -92.38)"/><path class="g" d="M193,333.476V118.437c0-4.581,2.724-6.561,6.19-4.7l230.142,132.96c3.343,1.981,6.19,7.18,6.19,11.761V473.492c0,4.581-2.724,6.561-6.19,4.7L199.19,345.237C195.724,343.256,193,337.933,193,333.476Z" transform="translate(-183.22 -90.8)"/><g transform="translate(123.799 319.839)"><path class="b" d="M296.985,359.212l-9.285-5.447c-1.362-.867-2.6,0-2.6,1.981v4.209a6.2,6.2,0,0,0,2.6,4.952l9.285,5.447c1.362.867,2.6,0,2.6-1.981v-4.209A6.565,6.565,0,0,0,296.985,359.212Z" transform="translate(-285.1 -353.429)"/><path class="e" d="M294.147,362.851c0-2.352-1.238-4.828-2.724-5.695s-2.724.248-2.724,2.6,1.238,4.828,2.724,5.695S294.147,365.079,294.147,362.851Z" transform="translate(-284.243 -352.612)"/></g><g transform="translate(225.561 134.646)"><path class="h" d="M381.666,214.177a4.91,4.91,0,0,0-1.733-3.838c-.99-.619-1.733.248-1.733,1.733a4.91,4.91,0,0,0,1.733,3.838C380.924,216.529,381.666,215.786,381.666,214.177Z" transform="translate(-364.706 -202.337)"/><path class="h" d="M376.266,211.077a4.91,4.91,0,0,0-1.733-3.838c-.99-.619-1.733.248-1.733,1.733a4.91,4.91,0,0,0,1.733,3.838C375.4,213.3,376.266,212.562,376.266,211.077Z" transform="translate(-365.991 -203.075)"/><path class="h" d="M370.766,207.877a4.91,4.91,0,0,0-1.733-3.838c-.99-.619-1.733.248-1.733,1.733a4.91,4.91,0,0,0,1.733,3.838C369.9,210.229,370.766,209.362,370.766,207.877Z" transform="translate(-367.3 -203.837)"/></g><g transform="translate(172.452 123.458)"><path class="f" d="M324.4,406.125V194.8l73.289,42.339v211.2Z" transform="translate(-324.4 -194.8)"/><line class="f" x1="60.29" y1="34.911" transform="translate(6.561 36.892)"/><path class="i" d="M329.7,219.023V205.9l60.166,34.787V253.81Z" transform="translate(-323.139 -192.158)"/><line class="f" x1="60.29" y1="34.787" transform="translate(6.561 46.548)"/><line class="f" x1="60.29" y1="34.787" transform="translate(6.561 56.205)"/><line class="f" x1="60.29" y1="34.787" transform="translate(6.561 65.861)"/><line class="f" x1="60.29" y1="34.911" transform="translate(6.561 75.393)"/><line class="f" x1="60.29" y1="34.787" transform="translate(6.561 85.05)"/><line class="f" x1="60.29" y1="34.787" transform="translate(6.561 94.706)"/><path class="i" d="M329.7,377.916V286.8l60.166,34.664V412.7Z" transform="translate(-323.139 -172.905)"/></g><g transform="translate(40.854 47.446)"><path class="f" d="M218.1,344.725V133.4l125.037,72.175V416.9Z" transform="translate(-218.1 -133.4)"/><path class="i" d="M222.5,273.979V194.5l114.142,65.985v79.479Z" transform="translate(-217.053 -118.859)"/><path class="i" d="M258.7,303.027l68.337,39.492V327.292L258.7,287.8Z" transform="translate(-208.438 -96.655)"/><path class="i" d="M258.7,322.051l68.337,39.368V346.192L258.7,306.7Z" transform="translate(-208.438 -92.157)"/></g><g transform="translate(40.854 47.446)"><path class="f" d="M343.137,268.093,218.1,195.918V133.4l125.037,72.175Z" transform="translate(-218.1 -133.4)"/><g transform="translate(5.447 24.687)"><path class="i" d="M240.575,173.469c0-7.676-4.085-16.218-9.037-19.189-4.952-2.847-9.037.99-9.037,8.666s4.085,16.218,9.037,19.189C236.613,185.106,240.575,181.145,240.575,173.469Z" transform="translate(-222.5 -153.341)"/><ellipse class="i" cx="8.171" cy="15.351" rx="8.171" ry="15.351" transform="translate(22.601 17.66) rotate(-17.061)"/><ellipse class="i" cx="8.171" cy="15.351" rx="8.171" ry="15.351" transform="translate(91.788 57.503) rotate(-17.061)"/></g></g><g transform="translate(123.799 319.839)"><path class="f" d="M296.985,359.212l-9.285-5.447c-1.362-.867-2.6,0-2.6,1.981v4.209a6.2,6.2,0,0,0,2.6,4.952l9.285,5.447c1.362.867,2.6,0,2.6-1.981v-4.209A6.565,6.565,0,0,0,296.985,359.212Z" transform="translate(-285.1 -353.429)"/><g transform="translate(4.457 4.252)"><path class="f" d="M294.147,362.851c0-2.352-1.238-4.828-2.724-5.695s-2.724.248-2.724,2.6,1.238,4.828,2.724,5.695S294.147,365.079,294.147,362.851Z" transform="translate(-288.7 -356.864)"/></g></g><path class="j" d="M207.09,179.391l-3.466-2.1L203.5,126.9l3.59,1.981Z" transform="translate(-180.721 -87.501)"/></g><path class="k" d="M481.33,500.395c0,4.581-2.724,6.561-6.19,4.7L245.122,372.139c-3.343-1.981-6.19-7.18-6.19-11.761v-3.962l-.248-.124.248-8.914V145.34c0-3.962,2.1-6.066,4.828-5.2h0L0,0V618.994H513.27C510.794,601.662,481.33,500.395,481.33,500.395Z"/><g transform="translate(108.572 183.841)"><path class="j" d="M187.806,200.61,90.5,256.815V206.3l97.306-56.2Z" transform="translate(-87.034 -148.119)"/><path class="g" d="M125.408,193.483v-1.362c0-1.114-.5-1.362-1.362-.99a.946.946,0,0,1-.619.248c-3.838,2.228-7.676,4.333-11.389,6.561-.371.248-.743.248-.867-.124-.5-.99-1.362-.99-2.6-.124a28.228,28.228,0,0,1-3.714,2.1A3.751,3.751,0,0,0,103,202.025v21.541c.5.619,1.238.371,2.1-.124,5.942-3.466,11.761-6.809,17.7-10.151a3.428,3.428,0,0,0,1.857-2.847c.5-3.962,1.114-7.8,1.733-11.761.124-1.114.371-2.352.5-3.466,0-.124,0-.124.124-.248v-1.238A1.834,1.834,0,0,0,125.408,193.483ZM103.99,202.52a1.247,1.247,0,0,1,.743-1.362c1.486-.867,3.095-1.733,4.581-2.6a.553.553,0,0,1,.619,0c.248.124.371.371.619.619.371.371.743.371,1.486,0,3.838-2.228,7.8-4.457,11.637-6.685.743-.5.867-.371.867.5v1.238l-.743.371-16.713,9.656a3.346,3.346,0,0,0-1.733,2.6c-.371,2.847-.867,5.695-1.362,8.666v-.5C103.99,210.815,103.99,206.73,103.99,202.52Z" transform="translate(-84.059 -138.393)"/><path class="l" d="M87.7,244.286l3.466,2.1v-50.51L87.7,193.9Z" transform="translate(-87.7 -137.695)"/><path class="m" d="M188.472,150.481l-3.466-1.981L87.7,204.7l3.466,1.981Z" transform="translate(-87.7 -148.5)"/></g><g transform="translate(154.625 235.961)"><path class="j" d="M225.106,242.71l-97.306,56.2V248.4l97.306-56.2Z" transform="translate(-124.21 -190.219)"/><path class="g" d="M167.974,242.642a12.909,12.909,0,0,1-3.59,8.295,6.059,6.059,0,0,1-1.609,1.486l-17.579,10.152c-.124.124-.248.124-.371.248-2.971,1.362-5.323-.248-5.323-3.714a13.168,13.168,0,0,1,5.076-9.656A11.307,11.307,0,0,1,149.4,241.9a3.408,3.408,0,0,1,2.228-.619,14.085,14.085,0,0,1,5.447-6.19c3.343-1.981,6.066-.867,6.809,2.228.99-.5,1.733.124,1.857,1.238C167.107,239.176,167.974,240.538,167.974,242.642Z" transform="translate(-121.425 -180.248)"/><path class="l" d="M124.9,286.386l3.59,2.1v-50.51L124.9,236Z" transform="translate(-124.9 -179.795)"/><path class="m" d="M225.8,192.7l-3.59-2.1L124.9,246.8l3.59,1.981Z" transform="translate(-124.9 -190.6)"/></g><g transform="translate(154.625 314.82)"><path class="j" d="M225.106,306.386l-97.306,56.2V312.2L225.106,256Z" transform="translate(-124.21 -253.895)"/><path class="g" d="M152.646,314.817l-13.246-3.59v17.827l26.369-15.227V296Z" transform="translate(-121.449 -244.376)"/><path class="g" d="M139.5,310.2,152,313.67c.371.124.99-.248,1.362-.743l12.5-17.827Z" transform="translate(-121.425 -244.59)"/><path class="l" d="M124.9,350.21l3.59,1.981V301.8l-3.59-2.1Z" transform="translate(-124.9 -243.495)"/><path class="m" d="M225.8,256.4l-3.59-2.1L124.9,310.5l3.59,2.1Z" transform="translate(-124.9 -254.3)"/></g><path class="e" d="M0,473.168l154.377-91.859-20.8-1.609s-96.687,57.071-100.4,52.986c-3.59-3.838,66.232-43.206,66.232-43.206L82.7,381.186,0,430.334Z" transform="translate(0 90.364)"/><g transform="translate(197.44 101.984)"><path class="j" d="M162.227,145.124c-.124,2.971-3.466,7.18-2.6,10.275.867,3.219,3.219,3.838,5.2,2.847s.619-4.7,1.733-5.695c.99-.99,1.609,1.362,1.857,2.724.124.99,1.857,2.1,1.981-1.609a25.774,25.774,0,0,0-1.609-9.409C168.046,143.391,162.351,142.648,162.227,145.124Z" transform="translate(-159.484 -67.847)"/><path class="j" d="M235.71,119.546c.248,2.352.5,4.952,2.228,6.685s.743-1.362.99-2.476,2.1.867,2.971,2.847,5.2,1.362,5.2-1.857-3.838-7.552-6.933-8.418C236.948,115.708,235.339,117.194,235.71,119.546Z" transform="translate(-141.356 -74.333)"/><path class="c" d="M196.962,90.12c-8.171,5.2-19.56,22.036-26,36.273s-8.418,24.017-10.028,30.455,7.428,4.7,8.666,1.609,8.047-22.284,12.627-30.7c5.571-10.028,11.018-15.475,20.427-23.646S206.619,84.053,196.962,90.12Z" transform="translate(-159.184 -80.932)"/><path class="c" d="M196.815,86.1c10.4.867,27.979,8.542,36.644,15.97s16.837,18.446,18.075,22.284a3.372,3.372,0,0,1-5.571,3.59c-2.352-2.476-15.97-16.96-23.027-20.551a86.68,86.68,0,0,0-25.5-8.047C188.521,98.11,190.873,85.73,196.815,86.1Z" transform="translate(-151.857 -81.494)"/><g transform="translate(27.452)"><path class="j" d="M187.39,99.281c1.238,2.228,6.561,6.314,9.161,7.3,2.476,1.114,4.952-1.981,5.447-3.838s1.238-7.552-1.609-10.275C197.418,89.749,184.3,93.586,187.39,99.281Z" transform="translate(-180.406 -80.189)"/><path class="n" d="M198.711,87.433c2.6,1.238,6.933,2.971,7.676,5.323s-1.981,3.219-2.971,2.847c0,0,2.228,3.962-.124,5.2-2.352,1.114-6.561.743-7.675-1.362C194.378,97.461,194.873,85.7,198.711,87.433Z" transform="translate(-178.481 -81.217)"/><path class="c" d="M183.744,99.985c-1.609-4.457-1.362-16.96,8.295-17.579,9.656-.5,12.008,6.066,12.627,8.418A19.715,19.715,0,0,1,196.5,103.7C189.191,108.774,185.106,103.946,183.744,99.985Z" transform="translate(-181.341 -82.379)"/><path class="c" d="M184.557,94.086c-1.609,1.114-3.838,6.438-2.476,10.894s9.78,3.466,12.627,2.1,2.476-6.066,2.228-8.542S187.033,92.352,184.557,94.086Z" transform="translate(-181.659 -79.698)"/></g><path class="o" d="M192.877,107.6c-6.066,1.981-15.97,14.732-18.817,19.932-5.2,9.656-6.438,15.722-8.171,23.4-.5,2.476-.619,4.085-.248,5.2a4.646,4.646,0,0,0,2.847-2.352c1.238-3.219,8.047-22.284,12.627-30.7A68.826,68.826,0,0,1,192.877,107.6Z" transform="translate(-158.07 -76.376)"/><path class="o" d="M166.221,144.307a30.8,30.8,0,0,0,1.486,11.885c.5-.124.867-.743.99-2.476a25.775,25.775,0,0,0-1.609-9.409C167.087,144.183,166.344,144.431,166.221,144.307Z" transform="translate(-157.907 -67.649)"/></g><g transform="translate(82.698 265.91)"><path class="j" d="M118.742,225.325c-1.114-1.857-2.352-4.457-1.486-6.066s1.981.743,2.352.99,1.114-3.219,2.352-4.828c1.238-1.486,5.2-.124,5.695,1.857s-1.981,8.666-4.209,9.9C121.218,228.543,119.361,226.315,118.742,225.325Z" transform="translate(-54.861 -214.792)"/><path class="c" d="M124.2,258.511c3.59-8.666,10.4-27.979,11.018-32.807s-6.314-4.209-6.933-1.981-8.79,19.932-13.123,30.95-14.98,18.075-21.912,17.951-6.066-13.989-4.952-21.541c.5-3.466,2.352-8.295,4.457-13l-.867-.5V225.828a72,72,0,0,0-13.494,25.131c-3.219,11.142-3.466,23.522-.5,44.444.619,4.7,2.847,15.6,3.466,20.179h0c1.114,12.009,3.095,29.712,1.733,43.577-1.486,14.484-9.533,46.8-13,53.481l8.418,5.323s13.246-21.912,16.465-38.378a187.994,187.994,0,0,0,3.838-35.406c2.971,8.418,6.19,18.322,7.923,27.36,3.343,16.465,10.152,43.7,10.152,43.7l9.037-1.857s-.867-31.569-4.333-52.367-7.428-41.1-8.047-51.872h0c-.248-4.828-.743-9.161-.743-12.009C112.563,283.766,120.486,267.424,124.2,258.511Z" transform="translate(-66.015 -213.067)"/><path class="o" d="M82.44,247.432c-2.352,13,1.609,19.808,3.095,20.922.248.124.743,0,1.362-.371-2.847-4.085-2.1-13.618-1.362-19.436.5-3.466,2.352-8.295,4.457-13l-.867-.5V232.7A29.134,29.134,0,0,0,82.44,247.432Z" transform="translate(-63.251 -210.53)"/><path class="e" d="M66.8,382.066s13.865,8.666,15.97,8.666c2.1-.124,2.724-3.59-3.466-9.409L70.885,376Z" transform="translate(-66.8 -176.427)"/><path class="e" d="M108.4,385.909s14.98-1.981,19.189-3.343,1.486-3.962-1.486-4.457c-2.847-.5-6.809-1.114-9.161-1.609l-9.037,1.857Z" transform="translate(-57.019 -176.308)"/><path class="j" d="M97.642,248.2s4.581,6.066,4.209,8.418c-.371,2.228-3.714,5.076-4.828,5.447-1.114.5-5.323-5.076-5.323-5.076Z" transform="translate(-60.874 -206.842)"/><path class="o" d="M95.1,250.9c1.857,2.1,2.971,3.343,4.828,8.047a4.734,4.734,0,0,0,1.114-2.228c.371-2.228-4.209-8.418-4.209-8.418Z" transform="translate(-60.065 -206.818)"/><path class="n" d="M82.928,260.719c-.371,2.228-.124,6.314,1.857,7.428,1.981.99,7.057,1.981,9.78-2.1,0,0,1.114,1.609,4.457-1.981s1.486-7.057-1.238-9.533C95.06,251.929,84.042,253.415,82.928,260.719Z" transform="translate(-62.996 -205.619)"/><path class="e" d="M86.23,266.449c5.2.248,14.732-7.8,15.6-14.98s-6.933-8.913-12.751-6.809c-6.314,2.228-9.161,9.533-7.923,15.1C82.516,265.211,83.878,266.325,86.23,266.449Z" transform="translate(-63.451 -207.883)"/><path class="e" d="M89.612,247.414c.619-2.847,1.486-6.561,5.2-6.809,3.838-.248,8.914,1.362,9.285,4.457s-2.724,8.79-5.076,9.409C96.793,255.213,88.746,251.5,89.612,247.414Z" transform="translate(-61.386 -208.655)"/><path class="o" d="M83.295,376.533C81.561,381.114,77.847,387.923,75,393l2.228,1.486s13.246-21.912,16.465-38.378A188,188,0,0,0,97.531,320.7s-2.1,4.828-4.581,16.96S86.142,368.734,83.295,376.533Z" transform="translate(-64.848 -189.587)"/><path class="o" d="M125.919,222.2a124.4,124.4,0,0,1-12.38,34.416c-10.523,19.56-13,27.731-13.494,36.025a120.779,120.779,0,0,0,3.59,37.016c3.343,13.37,6.809,24.388,8.914,43.33,1.609,14.237,2.724,32.683,3.219,40.977l3.095-.619s-.867-31.569-4.333-52.367-7.428-41.1-8.047-51.872h0c-.248-4.828-.743-9.161-.743-12.008-.124-13.246,7.8-29.588,11.513-38.5,3.59-8.666,10.4-27.979,11.018-32.807A2.932,2.932,0,0,0,125.919,222.2Z" transform="translate(-58.944 -213.029)"/><path class="o" d="M126.623,217.281a3.146,3.146,0,0,0-1.981-1.981c-.619,3.714-1.733,8.914-3.343,12.256h0a2,2,0,0,0,1.114-.371C124.643,225.823,127.119,219.262,126.623,217.281Z" transform="translate(-53.83 -214.671)"/><path class="o" d="M88.4,244.19a10.055,10.055,0,0,1,7.428,4.209,19.056,19.056,0,0,1,2.971,6.809,11.581,11.581,0,0,0,1.238-3.838C100.9,244.685,94.095,242.7,88.4,244.19Z" transform="translate(-61.659 -207.907)"/></g></g></g></svg>