<svg xmlns="http://www.w3.org/2000/svg" xmlns:xlink="http://www.w3.org/1999/xlink" viewBox="0 0 126 126"><defs><style>.a{fill:#2a2d40;}.b{clip-path:url(#a);}.c{fill:#fec49c;}.c,.d,.e,.f,.h,.i{fill-rule:evenodd;}.d{fill:#d2a588;}.e{fill:#f7f7f7;}.f{fill:#ebebeb;}.g{fill:#313536;}.h{fill:#23272a;}.i{fill:#604530;}</style><clipPath id="a"><circle cx="63" cy="63" r="63"/></clipPath></defs><g transform="translate(-334 -616)"><circle class="a" cx="63" cy="63" r="63" transform="translate(334 616)"/><g transform="translate(334 616)"><g class="b"><path class="c" d="M77.3,88.6c-.6,2.5-1.2,8.3-.2,11,.4,1,19.8,8.4,22.1,9.4,4.8,1.9,9,3.9,10.8,5.9,2,2.2,3.6,6.1,3.6,11.3H14.7c0-5.2,1.5-9.1,3.6-11.3,1.8-2,6-3.9,10.8-5.9,2.3-.9,21.7-8.4,22.1-9.4,1-2.7.4-8.4-.2-11C66.7,80.2,61.5,80.2,77.3,88.6Z"/><path class="d" d="M82.3,102.1s-5.4,7.6-9.6,8.1c-6.3.7-7.8-1.4-12-5.5-3.5-3.4-7.7-8-9-11.2,0,0-.7-6.3-1.2-7.3-.5-1.1,11.7-5.6,11.7-5.6l12.3-.2,2.9,8.2s-1.5,7.7-.2,11Z"/><path class="c" d="M45.2,73.2a6.431,6.431,0,0,1-6.4-2c-2.7-3.2-7.6-17.8,3.9-15.8Z"/><path class="c" d="M83.3,73.2a6.431,6.431,0,0,0,6.4-2c2.7-3.2,7.6-17.8-3.9-15.8Z"/><path class="c" d="M76.9,91.1c-11.3,12.1-14.7,12.1-25.9,0-7.5-8.1-8.8-16.5-9.3-26.4-.5-9-2.9-21.3,2-27.2,7.7-9.2,32.8-9.2,40.6,0,4.9,5.9,2.4,18.2,2,27.2C85.6,74.6,84.3,83,76.9,91.1Z"/><path class="e" d="M78.5,100.3c4.8,2.3,18.8,7.8,20.7,8.5,4.8,1.9,9,3.9,10.8,5.9,2,2.2,3.6,6.1,3.6,11.3H14.7c0-5.2,1.5-9.1,3.6-11.3,1.8-2,6-3.9,10.8-5.9,1.9-.8,16-6.2,20.8-8.6l14.3,3.1Z"/><path class="f" d="M51.7,94.3c-1.1-.1-1.3,3.7-1.8,6A46.325,46.325,0,0,0,59,114.2s.5.5.9.4a9.255,9.255,0,0,0,.7-2l.3-.9c.3-.8.5-1.6.6-1.7,1-2.6,2.4-6.2,2.5-6.7h-.1C60.6,102.4,51.8,97.3,51.7,94.3Z"/><path class="f" d="M76.7,94.3c1.1-.1,1.3,3.7,1.8,6a46.325,46.325,0,0,1-9.1,13.9s-.5.5-.9.4c-.1-.1-1.5-4.2-1.6-4.5-1-2.6-2.4-6.2-2.5-6.7C67.6,102.5,76.6,97.3,76.7,94.3Z"/><rect class="g" width="6.6" height="14.6" transform="translate(60.8 111.4)"/><path class="h" d="M61,112.7s3.6-2,6.6.1c0,0,.6.3.2-1.6s-2-7.7-3.4-7.8c-1.4,0-3.5,6.2-3.8,8S61,112.7,61,112.7Z"/><path class="i" d="M39.3,45.3s-4.3-2.5-.1-13.2C43.3,21.4,59,16.9,69,21.8c0,0,9.5,2.9,15.9,9,0,0,2.1,3.8,2,5.8,0,0,3.4,2.1,3.5,4.9s-.6,4.2-1.4,4.6v9.5s-2.6,2.8-3,8.3-.9,9.8-.9,9.8l-1.3,5.5L83,89.5c-.3,4.3-.5,5.6-3.4,9.1A23.748,23.748,0,0,1,67,107c-6.9,1.8-13.7-3.4-17.8-7.5-3.5-3.5-3.7-4.1-4.1-8.6l-.8-9.5-2-7.7L41.1,60.4s-.4-4-2.1-4.7l.3-10.4ZM64.1,80.9c-4.1,0-7.4.9-7.4,1.9,0,1.1,3.3,1.9,7.4,1.9s7.4-.9,7.4-1.9-3.3-1.9-7.4-1.9ZM44,57.8S45.9,72.9,46.6,76s3.7,7.3,5.8,6.4c.9-.4,2.2-1.4,3.6-2.2,2.1-1.2,2.9-1.4,5.3-.9a11.234,11.234,0,0,0,3.2.3c2.6-.2,4.1-.7,5.2-.6,3.4.3,2.9,3.2,6.3,3.3,4.4.1,6-7.3,6-7.3l2.4-17.5c2.8-2.7,2.7-8.2,2.7-8.2a10.332,10.332,0,0,0-1.7-4.6c-1.6-2.6-4.6-1.2-4.6-1.2-3.3,5.6-28.5.4-31.5-.7s-6.4-.6-7.7,5.4A10.473,10.473,0,0,0,44,57.8Z"/></g></g></g></svg>