<svg xmlns="http://www.w3.org/2000/svg" viewBox="0 0 689 395"><defs><style>.a,.e{fill:none;}.a,.c{stroke:#4e78c6;stroke-width:2px;}.b{fill:#eef9fa;}.c{fill:#fff;}.d{stroke:none;}</style></defs><g transform="translate(-29 -60)"><g class="a" transform="translate(29 60)"><path class="d" d="M15,0H674a15,15,0,0,1,15,15V41a0,0,0,0,1,0,0H0a0,0,0,0,1,0,0V15A15,15,0,0,1,15,0Z"/><path class="e" d="M15,1H674a14,14,0,0,1,14,14V39a1,1,0,0,1-1,1H2a1,1,0,0,1-1-1V15A14,14,0,0,1,15,1Z"/></g><path class="b" d="M9,0H665a9,9,0,0,1,9,9V25a0,0,0,0,1,0,0H0a0,0,0,0,1,0,0V9A9,9,0,0,1,9,0Z" transform="translate(37 68)"/><g class="c" transform="translate(47 72)"><circle class="d" cx="9" cy="9" r="9"/><circle class="e" cx="9" cy="9" r="8"/></g><g class="c" transform="translate(71 72)"><circle class="d" cx="9" cy="9" r="9"/><circle class="e" cx="9" cy="9" r="8"/></g><g class="c" transform="translate(95 72)"><circle class="d" cx="9" cy="9" r="9"/><circle class="e" cx="9" cy="9" r="8"/></g><rect class="b" width="104" height="46" rx="3" transform="translate(47 129)"/><g class="a" transform="translate(38 121)"><rect class="d" width="122" height="62" rx="8"/><rect class="e" x="1" y="1" width="120" height="60" rx="7"/></g><g class="a" transform="translate(199 121)"><rect class="d" width="504" height="24" rx="6"/><rect class="e" x="1" y="1" width="502" height="22" rx="5"/></g><g class="a" transform="translate(199 158)"><path class="d" d="M0,0H504a0,0,0,0,1,0,0V270a10,10,0,0,1-10,10H10A10,10,0,0,1,0,270V0A0,0,0,0,1,0,0Z"/><path class="e" d="M2,1H502a1,1,0,0,1,1,1V270a9,9,0,0,1-9,9H10a9,9,0,0,1-9-9V2A1,1,0,0,1,2,1Z"/></g><g transform="translate(0 13)"><rect class="b" width="106.331" height="16" transform="translate(214 170)"/><rect class="b" width="106.331" height="16" transform="translate(337.574 170)"/><rect class="b" width="106.331" height="16" transform="translate(461.148 170)"/><rect class="b" width="106.331" height="16" transform="translate(581.849 170)"/></g><rect class="b" width="474" height="195" transform="translate(214 224)"/><rect class="b" width="490" height="12" transform="translate(206 127)"/><g class="a" transform="translate(29 60)"><rect class="d" width="689" height="395" rx="15"/><rect class="e" x="1" y="1" width="687" height="393" rx="14"/></g><g transform="translate(9)"><g class="a" transform="translate(47 214)"><circle class="d" cx="12" cy="12" r="12"/><circle class="e" cx="12" cy="12" r="11"/></g><circle class="b" cx="7" cy="7" r="7" transform="translate(52 219)"/></g><g transform="translate(9 44)"><g class="a" transform="translate(47 214)"><circle class="d" cx="12" cy="12" r="12"/><circle class="e" cx="12" cy="12" r="11"/></g><circle class="b" cx="7" cy="7" r="7" transform="translate(52 219)"/></g><g transform="translate(9 88)"><g class="a" transform="translate(47 214)"><circle class="d" cx="12" cy="12" r="12"/><circle class="e" cx="12" cy="12" r="11"/></g><circle class="b" cx="7" cy="7" r="7" transform="translate(52 219)"/></g><g transform="translate(9 132)"><g class="a" transform="translate(47 214)"><circle class="d" cx="12" cy="12" r="12"/><circle class="e" cx="12" cy="12" r="11"/></g><circle class="b" cx="7" cy="7" r="7" transform="translate(52 219)"/></g><g transform="translate(9 176)"><g class="a" transform="translate(47 214)"><circle class="d" cx="12" cy="12" r="12"/><circle class="e" cx="12" cy="12" r="11"/></g><circle class="b" cx="7" cy="7" r="7" transform="translate(52 219)"/></g><rect class="b" width="68" height="12" transform="translate(89 220)"/><rect class="b" width="68" height="12" transform="translate(89 264)"/><rect class="b" width="68" height="12" transform="translate(89 308)"/><rect class="b" width="68" height="12" transform="translate(89 352)"/><rect class="b" width="68" height="12" transform="translate(89 396)"/></g></svg>